<svg xmlns="http://www.w3.org/2000/svg" width="18" height="22" viewBox="0 0 18 22">
    <path fill="#1a1a1a" d="M2.325 19.214C.427 16.483-1.023 11.5.924 8.13A5.416 5.416 0 0 1 5.5 5.372c1.427-.027 2.776.956 3.648.956s2.51-1.182 4.232-1.008a5.17 5.17 0 0 1 4.042 2.18 4.972 4.972 0 0 0-2.39 4.186A4.864 4.864 0 0 0 18 16.139a12.008 12.008 0 0 1-1.53 3.129c-.922 1.34-1.877 2.676-3.384 2.7-1.481.032-1.956-.868-3.649-.868s-2.22.846-3.622.9H5.74c-1.418 0-2.502-1.475-3.415-2.786zM8.972 5.07a4.591 4.591 0 0 1 1.173-3.4A4.968 4.968 0 0 1 13.4 0a4.832 4.832 0 0 1-1.15 3.513A4.192 4.192 0 0 1 9.2 5.078q-.116 0-.228-.008z"/>
</svg>
