<svg xmlns="http://www.w3.org/2000/svg" width="330.066" height="303.068" viewBox="0 0 330.066 303.068">
    <defs>
        <style>
            .cls-2{fill:#e0e0e0}.cls-3{fill:#37474f}.cls-4{fill:#263238}.cls-5{fill:#455a64}.cls-6{fill:#22c7db}.cls-7{opacity:.15}.cls-8{fill:#9e6767}.cls-9{fill:#874c4c}
        </style>
    </defs>
    <g id="Ok-amico" transform="translate(-18.472 -52.542)">
        <g id="freepik--Floor--inject-90" transform="translate(18.472 165.102)">
            <path id="freepik--floor--inject-90-2" fill="#f5f5f5" d="M66.8 382.076c-64.443-37.207-64.443-97.537 0-134.716s168.93-37.207 233.394 0 64.443 97.537 0 134.716-168.939 37.214-233.394 0z" transform="translate(-18.472 -219.465)"/>
        </g>
        <g id="freepik--Shadow--inject-90" transform="translate(67.745 189.053)">
            <ellipse id="freepik--shadow--inject-90-2" cx="50.636" cy="29.231" class="cls-2" rx="50.636" ry="29.231" transform="translate(0 81.994)"/>
            <ellipse id="freepik--shadow--inject-90-3" cx="72.234" cy="35.946" class="cls-2" rx="72.234" ry="35.946" transform="rotate(-28.34 170.794 -104.271)"/>
        </g>
        <g id="freepik--check-mark--inject-90" transform="translate(139.045 76.482)">
            <g id="freepik--check-mark--inject-90-2">
                <g id="freepik--Circle--inject-90" transform="translate(0 16.986)">
                    <path id="Path_560" d="M325.333 138.356l-.114-.057-27.171-15.638-.164-.078c-12.695-6.415-29.63-4.483-47.849 7.292-36.594 23.664-64.478 78.135-62.283 121.665 1.091 21.69 9.459 36.566 22.1 43.109l.107.057 27.178 15.646.128.071c12.695 6.415 29.645 4.512 47.878-7.278 36.594-23.664 64.478-78.135 62.283-121.665-1.08-21.704-9.448-36.58-22.093-43.124z" class="cls-3" transform="translate(-187.63 -118.966)"/>
                    <path id="Path_561" d="M236.205 338.488L210 323.334l-.128-.078c-12.638-6.558-21-21.433-22.1-43.095-.977-19.416 4.034-40.992 13.115-61.029l.178-.442 27 16.08c-9.1 20.036-14.092 41.612-13.115 61.029 1.033 21.234 9.067 35.931 21.255 42.689z" class="cls-4" transform="translate(-187.636 -147.608)"/>
                    <path id="Path_562" d="M296.1 309.428c36.594-23.664 64.478-78.135 62.283-121.665s-33.643-59.624-70.238-35.96-64.486 78.135-62.29 121.658 33.645 59.631 70.245 35.967z" class="cls-5" transform="translate(-198.573 -125.262)"/>
                </g>
                <path id="freepik--shadow--inject-90-4" d="M334.126 141.43l-45.868 94.494-9.872-10.692a16.229 16.229 0 1 0-23.845 22.02l26.012 28.174a16.145 16.145 0 0 0 11.041 5.189h.9a16.468 16.468 0 0 0 2.352-.171 16.2 16.2 0 0 0 12.246-8.967l52.6-108.343c-5.392-12.034-14.375-19.487-25.566-21.704z" class="cls-3" transform="translate(-205.611 -108.431)"/>
                <path id="Path_563" d="M373.371 97.013c-.285-.164-.584-.321-.884-.463a14.106 14.106 0 0 0-18.832 6.515l-58.363 120.218-3.322-3.564a13.706 13.706 0 0 0-3.307-2.644c-1.739-1-9.138-5.282-10.335-5.973a14.092 14.092 0 0 0-17.406 21.761l26.009 28.169a14.008 14.008 0 0 0 3.357 2.673c1.7.962 9.067 5.239 10.278 5.937a14.092 14.092 0 0 0 19.737-6.037l69.047-142.222a14.113 14.113 0 0 0-5.624-18.361z" class="cls-6" transform="translate(-207.606 -95.135)"/>
                <path id="Path_564" d="M373.371 97.013c-.285-.164-.584-.321-.884-.463a14.106 14.106 0 0 0-18.832 6.515l-58.363 120.218-3.322-3.564a13.706 13.706 0 0 0-3.307-2.644c-1.739-1-9.138-5.282-10.335-5.973a14.092 14.092 0 0 0-17.406 21.761l26.009 28.169a14.008 14.008 0 0 0 3.357 2.673c1.7.962 9.067 5.239 10.278 5.937a14.092 14.092 0 0 0 19.737-6.037l69.047-142.222a14.113 14.113 0 0 0-5.624-18.361z" class="cls-7" transform="translate(-207.606 -95.135)"/>
                <path id="Path_565" d="M300.945 323.376c-1.2-.713-8.553-4.99-10.271-5.937a14.041 14.041 0 0 1-3.357-2.673l-26.01-28.166a14.042 14.042 0 0 1-2.687-4.277l10.342 5.966a13.693 13.693 0 0 0 2.7 4.277l26 28.169a14.333 14.333 0 0 0 3.279 2.644z" class="cls-7" transform="translate(-208.019 -148.897)"/>
                <path id="Path_566" d="M382.627 106.153a14.084 14.084 0 0 0-3.265 4.334l-60.03 123.654-8.682-9.409 58.363-120.218a13.914 13.914 0 0 1 3.272-4.334z" class="cls-7" transform="translate(-222.963 -96.584)"/>
                <path id="freepik--Check--inject-90" d="M387.139 104.932a14.12 14.12 0 0 0-18.832 6.515L308.276 235.1l-12-13a14.085 14.085 0 0 0-20.671 19.117l26 28.176a14.092 14.092 0 0 0 23.023-3.407l69.047-142.222a14.106 14.106 0 0 0-6.543-18.832z" class="cls-6" transform="translate(-211.908 -97.544)"/>
            </g>
        </g>
        <g id="freepik--Character--inject-90" transform="translate(62.34 52.542)">
            <g id="freepik--character--inject-90-2">
                <path id="Path_567" d="M135.053 117.359c-5.439 0-9.159 1.426-13.023 6.914-3.564 5.047-13.286 21.868-13.286 21.868s-7.128-14.626-7.841-17.542-.67-4.213 0-5.481a11.447 11.447 0 0 0 1.8-4.99c.278-3.507 1.133-6.508.349-6.608-2.174-.121-2.26 2.673-3.4 4.319a1.369 1.369 0 0 1-2.2-.235c-.478-.977-.221-2.58-.449-3.735a15.312 15.312 0 0 1 .307-1.91 8.382 8.382 0 0 0 2.495.071c.941 1.475 1.582 2.1 2.894 1.5.171-.271-.563-2.138-1.426-3.564a.969.969 0 0 0-.584-.442 11.077 11.077 0 0 0-4.833-.135.905.905 0 0 0-.62.342 11.818 11.818 0 0 0-1.426 2.851c-.093.306-.378.3-.449.036A59.278 59.278 0 0 1 92.649 100c0-1.8-2.63-2.088-2.723.492a83.463 83.463 0 0 0 .178 10.385c0 .314-.314.463-.442.121a43.191 43.191 0 0 1-2.046-11.262c-.128-1.711-2.894-1.989-2.851.413a60.994 60.994 0 0 0 1.654 12.638c.086.3-.192.563-.4.221a41.035 41.035 0 0 1-3.093-7.841c-.592-2.067-3.35-1.54-2.851 1.034.862 4.612 2.231 10.442 4.277 14.612 2.181 4.455 4.063 6.686 5.146 10.186s5.567 23.322 10.364 31.049c3.756 6.059 8.054 5.5 12.68 2.3s21.158-26.226 21.158-26.226z" class="cls-8" transform="translate(-80.016 -72.132)"/>
                <path id="Path_568" d="M120.32 164.652s2.317 3.927 2.673 7.071a12.331 12.331 0 0 0-1.639-8.853z" class="cls-9" transform="translate(-91.592 -90.65)"/>
                <path id="Path_569" d="M148.628 124.942a14.653 14.653 0 0 0-10.043 2.039c-3.835 2.416-5.175 5.781-7.035 8.724s-8.29 13.372-8.29 13.372 2.359 9.9 11.74 11.939l14.049-19.06z" class="cls-5" transform="translate(-92.436 -79.716)"/>
                <path id="Path_570" d="M164.646 369.229c.713-.093 1.661 2.338 1.675 3.129a10.192 10.192 0 0 1-1.832 4.091 28.754 28.754 0 0 0-3.457 6.151 20.758 20.758 0 0 1-3.792 6.508c-2.495 3.2-8.354 8.553-17.249 6.23a8.227 8.227 0 0 1-4.049-2.046 2.644 2.644 0 0 1-.62-2.723z" class="cls-4" transform="translate(-95.859 -149.919)"/>
                <path id="Path_571" d="M147.141 363.489v.078a5.581 5.581 0 0 0 .057 2 14.006 14.006 0 0 1-3.371 10.97 21.106 21.106 0 0 1-4.163 3.364c-4.5 2.851-4.989 4.8-4.355 7.705 1.511 3.386 11.725 5.446 17.6.406a17.3 17.3 0 0 0 5.6-7.605 53.8 53.8 0 0 1 2.965-6.272c1.133-2.138 3.286-4.548 3.35-6.75.036-1.212-1.162-3.464-2.324-5.317-1.069-1.7-2.174-3.322-3.136-3.136l.271.962c-.805.834-1.967 1.148-2.666 2.138-.87 1.2-.841 2.851-1.376 4.205a.485.485 0 0 1-.264.321.356.356 0 0 1-.378-.192 1.033 1.033 0 0 1-.078-.442l-.064-2.074a1.746 1.746 0 0 0-.3-1.126c-.556-.627-1.925-.556-2.687-.584a29.376 29.376 0 0 0-3.072.185 1.476 1.476 0 0 0-1 .264 1.761 1.761 0 0 0-.609.9z" class="cls-3" transform="translate(-95.832 -146.959)"/>
                <path id="Path_572" d="M130.477 280.89c2.374 7.8 13.472 34.827 14.135 36.452l2.21 5.36a8.3 8.3 0 0 0 4.5.192c.235 2.587.627 6.643.777 8.689a34.364 34.364 0 0 1-.249 7.655c-.435 2-.941 4.091-1.319 6.094-.164.884-.328 1.775-.463 2.666a4.462 4.462 0 0 0 .221 2.8 3.472 3.472 0 0 0 .884 1 7.841 7.841 0 0 0 5.588 1.639 5.809 5.809 0 0 0 2.965-.984c1.725-1.233 2.331-3.379 3.208-5.2.955-1.974.649-2.2.713-4.312.057-1.483.47-5.246 1.062-9.181s3.143-17.763 4.369-31.541a112.987 112.987 0 0 0 0-18.39c9.737-26.451 14.07-42.183 15.346-50.964 1.29-8.924.67-12.117.506-17.242l-47.35 1.14c-3.789 24.474-10.29 53.663-7.103 64.127zm23.129-41.969z" class="cls-8" transform="translate(-94.264 -105.801)"/>
                <path id="Path_573" d="M129.445 262.233c.977-9 7.705-43.573 7.705-43.573h47.7s.306 6.636.221 9.687-1.071 8.617-2.771 15.681-8.019 27-9.266 29.937-3.564 11.454-3.564 11.454c1.169 15.995-1.875 30.35-4.156 49.432 0 0-.663 2.573-7.42 2.067-6.572-.5-7.9-2.922-7.9-2.922l-.435-16.458s-3.564 1.1-5.7.6c0 0-14.12-34.862-14.8-36.958s-.591-9.952.386-18.947z" class="cls-6" transform="translate(-93.973 -106.674)"/>
                <path id="Path_574" d="M129.445 262.233c.977-9 7.705-43.573 7.705-43.573h47.7s.306 6.636.221 9.687-1.071 8.617-2.771 15.681-8.019 27-9.266 29.937-3.564 11.454-3.564 11.454c1.169 15.995-1.875 30.35-4.156 49.432 0 0-.663 2.573-7.42 2.067-6.572-.5-7.9-2.922-7.9-2.922l-.435-16.458s-3.564 1.1-5.7.6c0 0-14.12-34.862-14.8-36.958s-.591-9.952.386-18.947z" opacity="0.45" transform="translate(-93.973 -106.674)"/>
                <path id="Path_575" d="M154.841 245.874c-6.757-6.087-8.261-10.934-8.261-10.934a45.191 45.191 0 0 0 11.9 9.53s-6.415 33.871-5.945 40.835 2.188 36.908 2.188 36.908c0 .285-4.548-31.669-4.683-34.214-.31-6.735 4.801-42.125 4.801-42.125z" opacity="0.2" transform="translate(-99.134 -111.35)"/>
                <path id="Path_576" d="M166.215 405.46c.663.192.577 2.174.278 2.915a9.031 9.031 0 0 1-3.058 3.172 14.969 14.969 0 0 0-4.526 4.868 22.916 22.916 0 0 1-7.092 6.928 17.107 17.107 0 0 1-12.474 1.746c-4.476-1.269-4.89-2.367-4.854-4.056z" class="cls-4" transform="translate(-95.661 -160.326)"/>
                <path id="Path_577" d="M152.125 390.872c-1.176 5.7-3.222 9.893-7.962 13.415-3.778 2.808-6.515 4.234-9.53 6.736-1.276 1.069-1.383 3.343-.406 5.795 2.039 1.632 4.932 2.573 8.817 2.566 4.348 0 6.016-.777 8.511-2.48a22.886 22.886 0 0 0 3.407-2.851c2.088-2.1 3.564-4.683 5.047-6.344s4.769-3.357 5.7-5.36c.513-1.1.3-3.642-.043-5.809-.314-1.989.292-5.481-.663-5.7l-.135 1.426c-.078.321-.278.485-.948.713a4.946 4.946 0 0 1-1.832.05 1.1 1.1 0 0 0-1.233.349c-.641.756-.813 1.825-1.639 2.452a.47.47 0 0 1-.185.1.2.2 0 0 1-.207-.007.292.292 0 0 1-.036-.235l.235-2.138a2.424 2.424 0 0 0 0-.641 1.426 1.426 0 0 0-.713-.941 7.663 7.663 0 0 0-1.917-.791 11.222 11.222 0 0 0-2.138-.364 6.792 6.792 0 0 0-2.131.064z" class="cls-5" transform="translate(-95.399 -156.102)"/>
                <path id="Path_578" d="M183.855 127.049a28.611 28.611 0 0 1 3.564 8.247 135.179 135.179 0 0 1 2.994 27.742c0 12.595-1.7 33-1.7 33-14.619 7.327-38.2 2.994-48.576-4.156.421-2.267.777-14.184 1.6-22.046.549-13.486 1.005-20.55 1.1-26.551.192-11.989 6.158-18.183 10.692-18.276l11.447.178z" class="cls-6" transform="translate(-97.284 -79.776)"/>
                <path id="Path_579" d="M202.725 219.47c-2.174 1.789-6.415 5.225-7.221 6.957-.9 1.982-1.426 4.989-2.031 6.116s.306 1.7 1.561 1.29 2-1.468 2.972-4.063a12.31 12.31 0 0 1 3.664-4.626z" class="cls-9" transform="translate(-112.547 -106.907)"/>
                <path id="Path_580" d="M195.368 216.49c.52 1.005 1.732 1.012 2.851 1.1a9.052 9.052 0 0 0 4.041-.456 7.377 7.377 0 0 0 3.885-2.7c1.1-1.582 1.383-3.564 2.01-5.382 1.312-3.813 5.218-6.565 5.859-10.606.264-1.668.264-3.635.713-4.669.278-.613 6.7-11.668 9-16.458 2.2-4.6 3.842-6.771 1.846-12.3s-8.789-25-13.6-31.762c-2.723-3.835-7.049-4.932-12.3-5.382-3.992 10.392.649 21.134.649 21.134l10.592 20.371s-4.106 14.028-6.672 21.825c-.713 2.138-2.138 3.507-3.771 5.909a47.637 47.637 0 0 0-2.894 3.984c-.713 1.426-.713 2.366-1.069 4.384-.555 3.211-1.418 10.531-1.14 11.008z" class="cls-8" transform="translate(-113.131 -80.598)"/>
                <path id="Path_581" d="M200 127.79c2.758.107 6.722.577 9.088 1.775s4.013 2.673 6.736 8.133 6.707 16.066 6.707 16.066-1.319 8-13.978 10.079L200 148.069a31.536 31.536 0 0 1 0-20.279z" class="cls-5" transform="translate(-113.99 -80.575)"/>
                <path id="Path_582" d="M151.685 83.29a15.835 15.835 0 0 1 .969 2.1 12.353 12.353 0 0 0 1.6 2.644 26.992 26.992 0 0 0 6.044 4.612A6.462 6.462 0 0 0 164.579 94a22.239 22.239 0 0 1 4.89.257l5.61.506-.314 5.895s.713-1.561 1.647-3.428c.813-1.6 4.22-9.737 4.234-9.772 1.689-4.027 3.692-9.4 1.675-13.636a5.6 5.6 0 0 0-2.2-2.516 5.09 5.09 0 0 0 .185-2.01 6.458 6.458 0 0 0-2.979-4.719 14.177 14.177 0 0 0-5.289-2.181 33.343 33.343 0 0 0-7.655-.848 45.175 45.175 0 0 0-7.513.862 26.616 26.616 0 0 1-4.184.435 8.061 8.061 0 0 1-1.81-.086 20.592 20.592 0 0 1-2.188-.791.506.506 0 0 0-.392 0 .47.47 0 0 0-.207.335 6.351 6.351 0 0 0 1.162 5.139 3.257 3.257 0 0 1-.927-.271 7.492 7.492 0 0 1-.962-.535 5.439 5.439 0 0 1-1.354-1.3.392.392 0 0 0-.221-.164.451.451 0 0 0-.342.214 4.99 4.99 0 0 0-.713 3.942 8.553 8.553 0 0 0 1.853 3.642 4.99 4.99 0 0 0-.257 4.783 6.665 6.665 0 0 0 1.262 1.81c.641.656 1.426 1.19 2.074 1.8a12.118 12.118 0 0 1 2.017 1.917z" class="cls-3" transform="translate(-98.565 -61.549)"/>
                <path id="Path_583" d="M170.14 78.219a10.791 10.791 0 0 0 .406 3.151 6.151 6.151 0 0 0 1.59 2.359 18.139 18.139 0 0 1 2.21 2.231 9.409 9.409 0 0 1 1.24 4.106 2.851 2.851 0 0 0 1.083 2.21c1.525.948 2.438-.884 3.25-1.782 1.048-.969 4.163-2.138 5.6 1.155 1.49 3.421-1.262 7.955-3.764 8.653-4.312 1.2-5.253-1.732-5.253-1.732l-.827 15.4c-2.431 4.612-8.147 6.08-11.9 5.346-3.243-.634-5.025-2.908-1.974-6.2l.164-4.69a26.762 26.762 0 0 1-5.766.107c-3.129-.584-4.676-3.243-5.524-6.672-1.347-5.51-1.967-11.3-.292-23.714.763-.421 3.849 1.982 8.553 2.3a21.7 21.7 0 0 0 11.204-2.228z" class="cls-8" transform="translate(-99.935 -66.3)"/>
                <path id="Path_584" d="M166.974 118.342s7.057-1.183 9.551-2.409a8.076 8.076 0 0 0 3.493-3.243 11.055 11.055 0 0 1-2.053 3.892c-1.867 2.231-11.055 3.628-11.055 3.628z" class="cls-9" transform="translate(-104.973 -76.238)"/>
                <path id="Path_585" d="M172.15 85.49l3.286 1.005a1.8 1.8 0 0 0-1.183-2.2 1.682 1.682 0 0 0-2.1 1.2z" class="cls-4" transform="translate(-106.478 -68.062)"/>
                <path id="Path_586" d="M168.6 107.84l-4.84 1.639a2.516 2.516 0 0 0 3.193 1.689 2.68 2.68 0 0 0 1.647-3.328z" class="cls-9" transform="translate(-104.068 -74.845)"/>
                <path id="Path_587" fill="#f28f8f" d="M168.888 109.5a2.851 2.851 0 0 0-2.758 2.138 2.409 2.409 0 0 0 1.5 0 2.63 2.63 0 0 0 1.725-2.1 2.638 2.638 0 0 0-.467-.038z" transform="translate(-104.749 -75.322)"/>
                <path id="Path_588" d="M151.567 85.974l3.343-.435a1.632 1.632 0 0 0-1.853-1.426 1.718 1.718 0 0 0-1.49 1.861z" class="cls-4" transform="translate(-100.564 -68.025)"/>
                <path id="Path_589" d="M180.4 88.73l11.027 3.756a4.034 4.034 0 0 0-3.179 1.611l-7.8-2.965z" class="cls-4" transform="translate(-108.848 -69.356)"/>
                <path id="Path_590" d="M153.879 94.233a1.333 1.333 0 0 0 1.269 1.426 1.347 1.347 0 0 0 1.361-1.333 1.333 1.333 0 0 0-1.269-1.426 1.347 1.347 0 0 0-1.361 1.333z" class="cls-4" transform="translate(-101.229 -70.554)"/>
                <path id="Path_591" d="M171.55 94.236a1.319 1.319 0 1 0 1.361-1.326 1.347 1.347 0 0 0-1.361 1.326z" class="cls-4" transform="translate(-106.306 -70.557)"/>
                <path id="Path_592" d="M144.749 89.263a2.979 2.979 0 0 0 .713 1.554 1.426 1.426 0 0 1 .278.556 27.182 27.182 0 0 0 .984 4.2 4.619 4.619 0 0 0 4.512 2.979 6.415 6.415 0 0 0 1.54-.128h.114a4.747 4.747 0 0 0 1.255-.492l.071-.05.107-.064.135-.093.121-.1.135-.107a.662.662 0 0 0 .128-.114 2.658 2.658 0 0 0 .242-.249 5.7 5.7 0 0 0 1.005-1.59c.656-1.468.485-3.521 1.554-3.764h.271c1.426 0 1.3 2.26 2.138 3.856a5.452 5.452 0 0 0 5.324 3.2h.406a2.454 2.454 0 0 0 .328 0 4.919 4.919 0 0 0 .763-.107l.235-.057a2.132 2.132 0 0 0 .228-.064l.15-.043a4.527 4.527 0 0 0 .855-.406 2.5 2.5 0 0 0 .285-.192 3.564 3.564 0 0 0 .492-.435 4.989 4.989 0 0 0 .962-1.483 25.923 25.923 0 0 0 .862-4.163 1.767 1.767 0 0 1 .242-.606 2.851 2.851 0 0 0 .713-1.5 1.311 1.311 0 0 0-.884-1.319l-.777-.1a23.555 23.555 0 0 0-7.691.093c-2.438.663-3.286 1.426-4.647 1.426s-2.1-.841-4.412-1.6a20.873 20.873 0 0 0-7.206-.364l-.713.071a1.24 1.24 0 0 0-.818 1.255zM160.8 90.8a2.046 2.046 0 0 1 .713-.563.714.714 0 0 1 .121-.071h.071c.107-.057.221-.114.342-.164l.321-.128a9.4 9.4 0 0 1 1.041-.328l.413-.1c.356-.071.713-.128 1.069-.164a1.624 1.624 0 0 1 .257 0c2.345-.192 3.813.364 4.348.841s.3 2.673.078 3.778v.164a1.983 1.983 0 0 1-.1.449c-.043.164-.05.178-.078.271-.05.15-.1.3-.157.456a1.523 1.523 0 0 1-.071.157.8.8 0 0 1-.036.093l-.05.107-.064.128-.078.15c0 .05-.064.1-.1.15a1.168 1.168 0 0 1-.1.157 3.7 3.7 0 0 1-3.286 1.554 4.547 4.547 0 0 1-3.464-1.326 4.918 4.918 0 0 1-1.133-2.224c-.348-1.253-.512-2.721-.057-3.387zm-13.814-1.148a2.139 2.139 0 0 1 .57-.364h.043l.257-.1.157-.05h.378a4.546 4.546 0 0 0 .542-.093h1.24a8.388 8.388 0 0 1 1.083.1c1.675.242 3.428 1.019 3.885 1.711s.356 2.138.135 3.343a5.075 5.075 0 0 1-.214.827.327.327 0 0 0 0 .064v.135l-.043.1-.086.2c0 .057-.057.121-.093.178a.421.421 0 0 1 0 .057l-.071.121-.064.1a3.7 3.7 0 0 1-3.493 1.6 4.177 4.177 0 0 1-1.753-.428 4.949 4.949 0 0 1-2.288-3.564c-.356-1.276-.684-3.464-.185-3.942z" class="cls-4" transform="translate(-98.607 -69.091)"/>
                <path id="Path_593" d="M161.6 93.426l-.249 9.166-5.111-1.483 4.769-7.762a1.326 1.326 0 0 1 .592.078z" class="cls-9" transform="translate(-101.909 -70.681)"/>
            </g>
        </g>
        <g id="freepik--Icons--inject-90" transform="translate(42.212 57.015)">
            <g id="freepik--like-icon--inject-90" transform="translate(212.54)">
                <path id="Path_597" d="M356.845 89.437l-4 1.2L349.96 81l3.984-1.2z" class="cls-2" transform="translate(-349.96 -71.264)"/>
                <path id="Path_598" d="M371.495 77.437a1.853 1.853 0 0 1-1.133 1.867 2.7 2.7 0 0 1 .563 1.019c.228.713-.378 1.746-1.582 2.138l-9.143 2.752-2.687-8.96s1.547-3.956 1.625-4.555a14.916 14.916 0 0 0-.962-3.208c-.128-.413 1.354-.955 2.523-.485a2.1 2.1 0 0 1 .713.52 6.322 6.322 0 0 1 1.048 1.5 5.367 5.367 0 0 1 .556 2.523l5.538-1.689a1.739 1.739 0 0 1 1.183 0 1.561 1.561 0 0 1 .442 2.637 1.475 1.475 0 0 1 1.511 1.019 1.625 1.625 0 0 1-.912 1.846 1.718 1.718 0 0 1 .717 1.076z" class="cls-2" transform="translate(-352.128 -67.824)"/>
            </g>
            <g id="freepik--like-icon--inject-90-2" transform="translate(271.594 98.229)">
                <path id="Path_599" d="M437.935 228.133l-5.125-1.233 2.987-12.36 5.125 1.233z" class="cls-2" transform="translate(-432.81 -208.192)"/>
                <path id="Path_600" d="M459.814 224.185a2.345 2.345 0 0 1-2.423 1.319 3.493 3.493 0 0 1-.036 1.468c-.228.962-1.532 1.668-3.072 1.29l-11.732-2.851 2.766-11.483s4.213-3.329 4.676-3.935.862-3.564.991-4.113 2.089-.178 3.065 1.083a2.6 2.6 0 0 1 .485 1.041 7.977 7.977 0 0 1 .185 2.3 6.879 6.879 0 0 1-1 3.115l7.085 1.711a2.188 2.188 0 0 1 1.269.791 2.046 2.046 0 0 1 .378 1.639 2.074 2.074 0 0 1-1.575 1.518 1.86 1.86 0 0 1 1 2.074 2.067 2.067 0 0 1-2.174 1.426 2.139 2.139 0 0 1 .114 1.6z" class="cls-2" transform="translate(-435.607 -205.634)"/>
            </g>
            <g id="freepik--like-icon--inject-90-3" transform="translate(0 85.247)">
                <path id="Path_601" d="M76.82 217.8l5.6 1.682 4.049-13.5-5.593-1.682z" class="cls-2" transform="translate(-58.97 -192.269)"/>
                <path id="Path_602" d="M52.143 200.956a2.6 2.6 0 0 0 1.59 2.616 3.877 3.877 0 0 0-.785 1.428c-.321 1.048.535 2.452 2.21 2.951l12.83 3.856 3.749-12.566s-2.174-5.545-2.281-6.415 1.176-3.906 1.347-4.491c.143-.47-1.9-1.333-3.564-.67a2.8 2.8 0 0 0-1.041.713 8.811 8.811 0 0 0-1.468 2.138 7.62 7.62 0 0 0-.784 3.564l-7.7-2.324a2.409 2.409 0 0 0-1.661.057 2.181 2.181 0 0 0-.613 3.692 2.06 2.06 0 0 0-2.138 1.426 2.288 2.288 0 0 0 1.276 2.595 2.423 2.423 0 0 0-.967 1.43z" class="cls-2" transform="translate(-51.777 -187.421)"/>
            </g>
        </g>
    </g>
</svg>
