<svg xmlns="http://www.w3.org/2000/svg" width="41.213" height="32.97" viewBox="0 0 41.213 32.97">
    <path fill="#22c7db" d="M10.212 19.394h4.121v2.061h-4.121zM40.092 6H7.121a4.09 4.09 0 0 0-4.1 4.121L3 34.849a4.107 4.107 0 0 0 4.121 4.121h32.97a4.107 4.107 0 0 0 4.121-4.121V10.121A4.107 4.107 0 0 0 40.092 6zM17.425 21.455a3.036 3.036 0 0 1-3.091 3.091h-4.122v4.121H7.121V16.3h7.212a3.036 3.036 0 0 1 3.091 3.091zm7.212 7.212h-3.091V16.3h3.091zm15.455 0h-2.473l-5.255-7.212v7.212h-2.575V16.3h2.576l5.152 7.212V16.3h2.576z" transform="translate(-3 -6)"/>
</svg>
