<svg xmlns="http://www.w3.org/2000/svg" width="22" height="21.967" viewBox="0 0 22 21.967">
    <g>
        <path fill="#5c5d69" d="M11.022 0A11 11 0 0 0 0 11a11.616 11.616 0 0 0 1.485 5.489 1.15 1.15 0 0 1 .077.99l-.737 2.464a.687.687 0 0 0 .9.858l2.222-.66a1.875 1.875 0 0 1 1.64.4A10.985 10.985 0 1 0 11.022 0" transform="translate(-41 -789.001) translate(41 789.001)"/>
        <path fill="#fff" d="M11.55 2.816a1.408 1.408 0 1 1 1.409-1.408 1.409 1.409 0 0 1-1.409 1.408zm-5.071 0A1.412 1.412 0 0 1 5.072 1.4 1.394 1.394 0 0 1 6.46 0h.019a1.408 1.408 0 1 1 0 2.816zm-5.072 0A1.426 1.426 0 0 1 0 1.409a1.408 1.408 0 1 1 2.816 0 1.424 1.424 0 0 1-1.408 1.407z" transform="translate(-41 -789.001) translate(45.499 798.605)"/>
    </g>
</svg>
