<svg xmlns="http://www.w3.org/2000/svg" width="22" height="22" viewBox="0 0 22 22">
    <path fill="#5c5d69" d="M17.282 22a5.868 5.868 0 0 1-2.438-.621C10.009 19.369 2.56 11.92.612 7.145-.2 5.364-.2 3.9.6 2.8.95 2.231 2.9 0 4.5 0h.07a2.1 2.1 0 0 1 1.263.663A18.75 18.75 0 0 1 8.7 4.572a2.5 2.5 0 0 1-.475 1.817 1.762 1.762 0 0 0-.353 1.557 10.923 10.923 0 0 0 6.2 6.188 1.174 1.174 0 0 0 .406.074 2.349 2.349 0 0 0 1.139-.431l.013-.007a2.909 2.909 0 0 1 1.439-.508 1.774 1.774 0 0 1 .366.039 18.724 18.724 0 0 1 3.91 2.865A2.076 2.076 0 0 1 22 17.422c.059 1.662-2.4 3.751-2.815 3.986a3.183 3.183 0 0 1-1.903.592zm3.945-13.2a.773.773 0 0 1-.768-.687 7.4 7.4 0 0 0-6.572-6.571.773.773 0 0 1-.682-.853.761.761 0 0 1 .853-.683A8.939 8.939 0 0 1 22 7.94a.775.775 0 0 1-.681.855c-.039.005-.067.005-.092.005zm-3.352 0a.827.827 0 0 1-.809-.667 4.028 4.028 0 0 0-3.2-3.2.824.824 0 0 1 .168-1.633.863.863 0 0 1 .149.013 5.672 5.672 0 0 1 4.5 4.5.827.827 0 0 1-.651.969.951.951 0 0 1-.158.018z"/>
</svg>
