<svg xmlns="http://www.w3.org/2000/svg" width="24" height="20" viewBox="0 0 24 20">
    <path fill="#5c5d69" d="M11.944 20a13.465 13.465 0 0 1-4.873-.68 2.843 2.843 0 0 1-2.065-2.72c0-2.3 2.269-3.425 6.938-3.425a13.469 13.469 0 0 1 4.873.68 2.843 2.843 0 0 1 2.066 2.721C18.882 18.88 16.612 20 11.944 20zm9.069-2.636a.175.175 0 0 1-.13-.06.259.259 0 0 1-.062-.2 5.386 5.386 0 0 0-1.08-3.894 6.234 6.234 0 0 0-1.817-1.583.059.059 0 0 1-.031-.059.046.046 0 0 1 .035-.032h.268a14.757 14.757 0 0 1 3.269.357 2.99 2.99 0 0 1 2.325 1.63 2.705 2.705 0 0 1 0 2.087c-.519 1.29-2.236 1.668-2.75 1.753zm-18.025 0H2.96C2.446 17.277.731 16.9.21 15.608a2.7 2.7 0 0 1 0-2.087 3 3 0 0 1 2.324-1.631 14.815 14.815 0 0 1 3.266-.356h.276a.043.043 0 0 1 .034.031.062.062 0 0 1-.031.06 6.236 6.236 0 0 0-1.82 1.585 5.383 5.383 0 0 0-1.08 3.89.26.26 0 0 1-.062.2.175.175 0 0 1-.129.064zm8.956-6.78a4.28 4.28 0 0 1-3.251-1.546 5.7 5.7 0 0 1-1.34-3.747 5.7 5.7 0 0 1 1.34-3.748 4.2 4.2 0 0 1 6.5 0 5.7 5.7 0 0 1 1.34 3.748A5.7 5.7 0 0 1 15.2 9.038a4.281 4.281 0 0 1-3.256 1.545zm6.23-.78h-.105a3.4 3.4 0 0 1-.528-.059.179.179 0 0 1-.126-.106.218.218 0 0 1 .01-.2A7.967 7.967 0 0 0 18.5 5.387a7.986 7.986 0 0 0-1.166-4.215.148.148 0 0 1-.017-.138.139.139 0 0 1 .09-.061 3.34 3.34 0 0 1 .772-.092 3.659 3.659 0 0 1 2.834 1.431 4.964 4.964 0 0 1 .9 4.212 3.961 3.961 0 0 1-3.74 3.276zM5.828 9.8a3.96 3.96 0 0 1-3.74-3.279 4.963 4.963 0 0 1 .9-4.212A3.658 3.658 0 0 1 5.822.882 3.411 3.411 0 0 1 6.6.973a.148.148 0 0 1 .09.062.147.147 0 0 1-.018.138A7.99 7.99 0 0 0 5.5 5.386a7.978 7.978 0 0 0 1.076 4.052.215.215 0 0 1 .011.2.18.18 0 0 1-.127.108 3.269 3.269 0 0 1-.527.059z"/>
</svg>
