<svg xmlns="http://www.w3.org/2000/svg" width="19.997" height="21.052" viewBox="0 0 19.997 21.052">
    <path fill="#5c5d69" d="M10.732 21.052H9.269a2.175 2.175 0 0 1-2.237-2.157 1.979 1.979 0 0 0-1.979-1.915 1.671 1.671 0 0 0-.947.241 2.274 2.274 0 0 1-1.14.317 2.233 2.233 0 0 1-1.914-1.1l-.744-1.259a2.109 2.109 0 0 1-.021-2.158 2.223 2.223 0 0 1 .86-.832 1.705 1.705 0 0 0 .678-.672 1.879 1.879 0 0 0 .2-1.438 1.936 1.936 0 0 0-.9-1.195A2.151 2.151 0 0 1 .33 5.9l.721-1.242a2.234 2.234 0 0 1 3.033-.8 1.994 1.994 0 0 0 .944.236 2.062 2.062 0 0 0 1.756-.961 1.613 1.613 0 0 0 .247-.927 1.884 1.884 0 0 1 .3-1.115A2.317 2.317 0 0 1 9.237 0h1.517a2.268 2.268 0 0 1 1.915 1.1 1.877 1.877 0 0 1 .29 1.115 1.62 1.62 0 0 0 .247.927 2.066 2.066 0 0 0 1.759.961 2.031 2.031 0 0 0 .952-.236 2.22 2.22 0 0 1 3.021.8l.723 1.233a2.133 2.133 0 0 1-.8 2.979 1.927 1.927 0 0 0-.9 1.2 1.865 1.865 0 0 0 .21 1.434 1.638 1.638 0 0 0 .667.672 2.438 2.438 0 0 1 .87.832 2.134 2.134 0 0 1-.022 2.158l-.753 1.263a2.2 2.2 0 0 1-3.044.778 1.715 1.715 0 0 0-.947-.241 2 2 0 0 0-1.99 1.915 2.17 2.17 0 0 1-2.22 2.162zm-.72-13.494a3.021 3.021 0 0 0-3.055 2.979 2.907 2.907 0 0 0 .894 2.1 3.084 3.084 0 0 0 2.16.865 3.035 3.035 0 0 0 2.145-.865 2.966 2.966 0 0 0 0-4.213 3.028 3.028 0 0 0-2.144-.866z" transform="translate(0)"/>
</svg>
